<svg xmlns="http://www.w3.org/2000/svg" width="500" height="120" viewBox="0 0 500 120">
  <g transform="translate(5, 2) scale(0.23)">
    <defs>
      <clipPath id="scb"><path d="M 230 45 L 450 45 L 450 215 Q 447 288 340 342 Q 233 288 230 215 Z"/></clipPath>
      <path id="rtpb" d="M 195 344 C 245 344 292 382 340 382 C 388 382 435 344 485 344"/>
    </defs>
    <path d="M 230 45 L 450 45 L 450 215 Q 447 288 340 342 Q 233 288 230 215 Z" fill="#dce6f7"/>
    <polygon points="450,130 450,185 230,270 230,215" fill="#cc1a1a" clip-path="url(#scb)"/>
    <g clip-path="url(#scb)" fill="#1c3068"><rect x="289" y="105" width="13" height="140"/><rect x="258" y="140" width="75" height="13"/></g>
    <g clip-path="url(#scb)" fill="none" stroke="#1c3068" stroke-linecap="round" stroke-linejoin="round">
      <path d="M 340 295 Q 295 278 275 263 L 275 228 Q 295 243 340 253 Z" stroke-width="3" fill="#1c3068" fill-opacity="0.15"/>
      <path d="M 340 295 Q 385 278 405 263 L 405 228 Q 385 243 340 253 Z" stroke-width="3" fill="#1c3068" fill-opacity="0.15"/>
      <line x1="340" y1="253" x2="340" y2="295" stroke-width="3.5"/>
      <path d="M 340 295 Q 295 278 275 263 L 275 228 Q 295 243 340 253" stroke-width="2.5"/>
      <path d="M 340 295 Q 385 278 405 263 L 405 228 Q 385 243 340 253" stroke-width="2.5"/>
    </g>
    <path d="M 230 45 L 450 45 L 450 215 Q 447 288 340 342 Q 233 288 230 215 Z" fill="none" stroke="white" stroke-width="5.5"/>
    <path d="M 242 56 L 438 56 L 438 213 Q 435 282 340 332 Q 245 282 242 213 Z" fill="none" stroke="white" stroke-width="1.3" opacity="0.4"/>
    <path d="M 188 328 Q 168 320 152 330 Q 156 346 172 350 Q 160 354 155 362 Q 172 364 188 356 L 188 328 Z" fill="#061030"/>
    <path d="M 492 328 Q 512 320 528 330 Q 524 346 508 350 Q 520 354 525 362 Q 508 364 492 356 L 492 328 Z" fill="#061030"/>
    <path d="M 188 328 C 240 328 290 368 340 368 C 390 368 440 328 492 328 L 492 356 C 440 356 390 396 340 396 C 290 396 240 356 188 356 Z" fill="#c8a830"/>
    <path d="M 192 330 C 242 330 292 369 340 369 C 388 369 438 330 488 330" fill="none" stroke="#e8c850" stroke-width="1.2" opacity="0.7"/>
    <text font-family="serif" font-size="12.5" font-weight="700" fill="#1c3068" letter-spacing="1.8">
      <textPath href="#rtpb" startOffset="50%" text-anchor="middle">HOLY ROSARY P.7 SCHOOL</textPath>
    </text>
  </g>
  <line x1="150" y1="14" x2="150" y2="106" stroke="#c8a830" stroke-width="1.5" opacity="0.6"/>
  <g transform="translate(168, 20)">
    <text x="0" y="30" font-family="Georgia,serif" font-size="30" font-weight="700" fill="white" letter-spacing="2">HOLY ROSARY</text>
    <line x1="0" y1="39" x2="280" y2="39" stroke="#c8a830" stroke-width="1.8"/>
    <text x="0" y="60" font-family="Georgia,serif" font-size="16" font-weight="400" fill="#c8a830" letter-spacing="4">Primary School</text>
  </g>
</svg>
